<?xml version="1.0" encoding="UTF-8"?>
<svg id="Layer_1" data-name="Layer 1" xmlns="http://www.w3.org/2000/svg" viewBox="0 0 374.29 379.15">
  <defs>
    <style>
      .cls-1 {
        fill: #00c825;
        stroke-width: 0px;
      }
    </style>
  </defs>
  <g>
    <path class="cls-1" d="m196.18,151.74c7.95-9.15,15.84-19.27,19.41-31.04,2.16-8.31,3.19-15.94,1.51-24.04-2.67-12.87-13.38-34.89-29.55-35.13-13.91-.21-15.99,21.22-15.47,31.03.42,8.01,3.83,15.74,6.82,23.08,5.34,12.24,11.58,24.03,17.27,36.1Z"/>
    <path class="cls-1" d="m284.04,173.58c-8.05.54-15.66,3.79-23.08,6.82-12.24,5.34-24.03,11.58-36.1,17.27,9.15,7.95,19.27,15.84,31.04,19.41,8.31,2.16,15.94,3.19,24.04,1.51,12.88-2.67,34.89-13.37,35.13-29.55.21-13.93-21.22-16.14-31.03-15.47Z"/>
    <path class="cls-1" d="m243.05,233.32c-11.93-4.59-24.17-8.25-36.15-12.7.27,12.42,1.6,24.22,6.09,35.88,2.95,6.86,7.55,13.5,13.71,17.81,10.71,7.49,27.5,10.29,38.06,1.07,9.58-8.36,6.58-23.39-1.77-31.48-5.5-5.33-13.07-7.61-19.94-10.58Z"/>
    <path class="cls-1" d="m178.92,226.35c-8.06,9.18-15.62,19.3-19.41,31.04-2.2,7.62-3.56,16.25-1.51,24.04,3.42,13,13.62,34.54,29.55,35.13,13.81.51,16.06-21.48,15.47-31.03-.5-8.06-3.79-15.66-6.82-23.08-5.34-12.24-11.58-24.03-17.27-36.1Z"/>
    <path class="cls-1" d="m102.28,228.19c-6.9,10.59-10.67,27.93-1.07,38.06,8.56,9.03,23.31,6.46,31.48-1.77,5.3-5.34,7.69-13.19,10.58-19.94,4.59-11.93,8.25-24.17,12.7-36.15-12.42.27-24.22,1.6-35.88,6.09-6.69,3.04-13.73,7.44-17.81,13.71Z"/>
    <path class="cls-1" d="m150.24,180.42c-9.18-8.06-19.3-15.62-31.04-19.41-7.62-2.2-16.25-3.56-24.04-1.51-13.11,3.45-34.55,13.57-35.13,29.55-.51,13.79,21.48,15.92,31.03,15.47,8.02-.38,15.74-3.83,23.08-6.82,12.24-5.34,24.03-11.58,36.1-17.27Z"/>
    <path class="cls-1" d="m148.4,103.77c-10.54-6.86-27.88-10.15-38.06-1.07-9.27,8.27-6.07,23.41,1.77,31.48,5.26,5.41,13.19,7.7,19.94,10.58,11.93,4.59,24.17,8.25,36.15,12.7-.05-12.12-1.2-24.72-6.09-35.88-2.94-6.71-7.44-13.73-13.71-17.81Z"/>
  </g>
  <path class="cls-1" d="m273.6,149.73c7.49-10.71,10.29-27.5,1.07-38.06-8.36-9.58-23.39-6.58-31.48,1.77-5.33,5.5-7.61,13.07-10.58,19.94-4.59,11.93-8.25,24.17-12.7,36.15,12.42-.27,24.22-1.6,35.88-6.09,6.86-2.95,13.5-7.55,17.81-13.71Z"/>
</svg>